<?xml version="1.0" encoding="iso-8859-1"?>
<!-- Generator: Adobe Illustrator 18.0.0, SVG Export Plug-In . SVG Version: 6.00 Build 0)  -->
<!DOCTYPE svg PUBLIC "-//W3C//DTD SVG 1.1//EN" "http://www.w3.org/Graphics/SVG/1.1/DTD/svg11.dtd">
<svg version="1.1" id="Capa_1" xmlns="http://www.w3.org/2000/svg" xmlns:xlink="http://www.w3.org/1999/xlink" x="0px" y="0px"
	 viewBox="0 0 29.988 29.988" style="enable-background:new 0 0 29.988 29.988;" xml:space="preserve">
<g id="_x38__16_">
	<g>
		<path style="fill-rule:evenodd;clip-rule:evenodd;" d="M15.988,15.488c0-0.828-0.672-1.5-1.5-1.5s-1.5,0.672-1.5,1.5
			c0,0.828,0.672,1.5,1.5,1.5S15.988,16.316,15.988,15.488z M11.513,20.641l0.926-4.604l-1.732-1l-1.315,9.278l7.377-5.778l-1.732-1
			L11.513,20.641z M13.939,13.439l3.524-3.104l-0.926,4.604l1.732,1l1.315-9.278l-7.377,5.778L13.939,13.439z M14.994,0
			C6.713,0,0,6.713,0,14.994c0,8.281,6.713,14.994,14.994,14.994c8.281,0,14.994-6.713,14.994-14.994
			C29.988,6.713,23.275,0,14.994,0z M14.988,27.988c-7.18,0-13-5.82-13-13c0-7.18,5.82-13,13-13s13,5.82,13,13
			C27.988,22.168,22.168,27.988,14.988,27.988z"/>
	</g>
</g>
<g>
</g>
<g>
</g>
<g>
</g>
<g>
</g>
<g>
</g>
<g>
</g>
<g>
</g>
<g>
</g>
<g>
</g>
<g>
</g>
<g>
</g>
<g>
</g>
<g>
</g>
<g>
</g>
<g>
</g>
</svg>
