<?xml version="1.0" encoding="iso-8859-1"?>

<!-- Generator: Adobe Illustrator 18.0.0, SVG Export Plug-In . SVG Version: 6.00 Build 0)  -->

<!DOCTYPE svg PUBLIC "-//W3C//DTD SVG 1.1//EN" "http://www.w3.org/Graphics/SVG/1.1/DTD/svg11.dtd">

<svg version="1.1" id="Capa_1" xmlns="http://www.w3.org/2000/svg" xmlns:xlink="http://www.w3.org/1999/xlink" x="0px" y="0px"

	 viewBox="0 0 32 32" style="enable-background:new 0 0 32 32;" xml:space="preserve">

<g id="_x32__8_">

	<g>

		<path style="fill-rule:evenodd;clip-rule:evenodd;fill:#fff;" d="M15.224,23.686c0.209,0.21,0.487,0.299,0.76,0.285

			c0.274,0.014,0.551-0.075,0.76-0.285l4.942-5.981c0.392-0.393,0.392-1.031,0-1.424c-0.392-0.393-1.028-0.393-1.42,0L17,20.235V5

			c0-0.552-0.448-1-1-1c-0.552,0-1,0.448-1,1v15.273l-3.298-3.992c-0.392-0.393-1.028-0.393-1.42,0

			c-0.392,0.393-0.392,1.031,0,1.424L15.224,23.686z M28,0H4C1.791,0,0,1.791,0,4v24c0,2.209,1.791,4,4,4h24c2.209,0,4-1.791,4-4V4

			C32,1.791,30.209,0,28,0z M30,28c0,1.105-0.895,2-2,2H4c-1.105,0-2-0.896-2-2V4c0-1.105,0.895-2,2-2h24c1.105,0,2,0.895,2,2V28z

			 M25,26H7c-0.552,0-1,0.448-1,1s0.448,1,1,1h18c0.552,0,1-0.448,1-1S25.552,26,25,26z"/>

	</g>

</g>

<g>

</g>

<g>

</g>

<g>

</g>

<g>

</g>

<g>

</g>

<g>

</g>

<g>

</g>

<g>

</g>

<g>

</g>

<g>

</g>

<g>

</g>

<g>

</g>

<g>

</g>

<g>

</g>

<g>

</g>

</svg>

