<?xml version="1.0" encoding="iso-8859-1"?>
<!-- Generator: Adobe Illustrator 18.0.0, SVG Export Plug-In . SVG Version: 6.00 Build 0)  -->
<!DOCTYPE svg PUBLIC "-//W3C//DTD SVG 1.1//EN" "http://www.w3.org/Graphics/SVG/1.1/DTD/svg11.dtd">
<svg version="1.1" id="Capa_1" xmlns="http://www.w3.org/2000/svg" xmlns:xlink="http://www.w3.org/1999/xlink" x="0px" y="0px"
	 viewBox="0 0 24 30" style="enable-background:new 0 0 24 30;" xml:space="preserve">
<g id="_x34__13_">
	<g>
		<path style="fill-rule:evenodd;clip-rule:evenodd;" d="M20,0H4C1.791,0,0,1.791,0,4v26c2.353,0,1.791,0,4,0h16
			c2.209,0,0.933,0,4,0V4C24,1.791,22.209,0,20,0z M4,28H2v-2h2V28z M4,24H2v-2h2V24z M4,20H2v-2h2V20z M4,16H2v-2h2V16z M4,12H2v-2
			h2V12z M4,8H2V6h2V8z M18,27c0,0.552-0.448,1-1,1H7c-0.552,0-1-0.448-1-1V17c0-0.552,0.448-1,1-1h10c0.552,0,1,0.448,1,1V27z
			 M18,13c0,0.552-0.448,1-1,1H7c-0.552,0-1-0.448-1-1V3c0-0.552,0.448-1,1-1h10c0.552,0,1,0.448,1,1V13z M22,28h-2v-2h2V28z M22,24
			h-2v-2h2V24z M22,20h-2v-2h2V20z M22,16h-2v-2h2V16z M22,12h-2v-2h2V12z M22,8h-2V6h2V8z"/>
	</g>
</g>
<g>
</g>
<g>
</g>
<g>
</g>
<g>
</g>
<g>
</g>
<g>
</g>
<g>
</g>
<g>
</g>
<g>
</g>
<g>
</g>
<g>
</g>
<g>
</g>
<g>
</g>
<g>
</g>
<g>
</g>
</svg>
