<?xml version="1.0" encoding="iso-8859-1"?>
<!-- Generator: Adobe Illustrator 18.1.1, SVG Export Plug-In . SVG Version: 6.00 Build 0)  -->
<svg version="1.1" id="Capa_1" xmlns="http://www.w3.org/2000/svg" xmlns:xlink="http://www.w3.org/1999/xlink" x="0px" y="0px"
	 viewBox="0 0 388.976 388.976" style="enable-background:new 0 0 388.976 388.976;" xml:space="preserve">
<g>
	<g>
		<path style="fill:#010002;" d="M350.288,0H38.687c-4.487,0-8.129,3.642-8.129,8.129V380.84c0,2.601,1.236,5.032,3.333,6.576
			c2.097,1.544,4.812,1.951,7.267,1.179l153.329-48.893l153.329,48.885c0.813,0.252,1.642,0.382,2.471,0.382
			c1.707,0,3.39-0.52,4.796-1.553c2.097-1.536,3.333-3.967,3.333-6.576V8.129C358.417,3.633,354.783,0,350.288,0z M342.16,369.728
			L196.959,323.42c-0.805-0.252-1.634-0.382-2.471-0.382s-1.666,0.13-2.471,0.382L46.816,369.728V16.257H342.16V369.728z"/>
		<path style="fill:#010002;" d="M80.688,186.356h227.6c4.495,0,8.129-3.633,8.129-8.129c0-4.487-3.633-8.129-8.129-8.129h-227.6
			c-4.487,0-8.129,3.642-8.129,8.129C72.559,182.722,76.201,186.356,80.688,186.356z"/>
		<path style="fill:#010002;" d="M80.688,235.127h227.6c4.495,0,8.129-3.633,8.129-8.129c0-4.495-3.633-8.129-8.129-8.129h-227.6
			c-4.487,0-8.129,3.633-8.129,8.129C72.559,231.494,76.201,235.127,80.688,235.127z"/>
		<path style="fill:#010002;" d="M80.688,137.584h227.6c4.495,0,8.129-3.642,8.129-8.129s-3.633-8.129-8.129-8.129h-227.6
			c-4.487,0-8.129,3.642-8.129,8.129S76.201,137.584,80.688,137.584z"/>
		<path style="fill:#010002;" d="M80.688,88.813h227.6c4.495,0,8.129-3.642,8.129-8.129c0-4.487-3.633-8.129-8.129-8.129h-227.6
			c-4.487,0-8.129,3.642-8.129,8.129C72.559,85.171,76.201,88.813,80.688,88.813z"/>
	</g>
</g>
<g>
</g>
<g>
</g>
<g>
</g>
<g>
</g>
<g>
</g>
<g>
</g>
<g>
</g>
<g>
</g>
<g>
</g>
<g>
</g>
<g>
</g>
<g>
</g>
<g>
</g>
<g>
</g>
<g>
</g>
</svg>
